<svg width="40" height="40" viewBox="0 0 40 40" fill="none" xmlns="http://www.w3.org/2000/svg">
    <defs>
        <linearGradient id="githubGradient" x1="0" y1="0" x2="40" y2="40" gradientUnits="userSpaceOnUse">
            <stop stop-color="#6e5494" />
            <stop offset="1" stop-color="#181717" />
        </linearGradient>
        <filter id="githubShadow" x="-10%" y="-10%" width="120%" height="120%">
            <feDropShadow dx="0" dy="2" stdDeviation="2" flood-color="#181717" />
        </filter>
    </defs>
    <circle cx="20" cy="20" r="20" fill="url(#githubGradient)" filter="url(#githubShadow)" />
    <path
        d="M26 30v-3.5c0-.8-.3-1.3-.7-1.8 2.3-.3 4.7-1.1 4.7-5A4 4 0 0 0 29 16.2c.1-.3.3-1.2-.1-2.5 0 0-.8-.3-2.6 1a8.7 8.7 0 0 0-4.6 0c-1.8-1.3-2.6-1-2.6-1-.4 1.3-.2 2.2-.1 2.5A4 4 0 0 0 10 19.7c0 3.9 2.4 4.7 4.7 5-.3.3-.6.8-.6 1.6V30"
        stroke="#fff" stroke-width="2" stroke-linecap="round" stroke-linejoin="round" />
</svg>
stroke="#fff" stroke-width="2" stroke-linecap="round" stroke-linejoin="round" />
</svg>